<?xml version="1.0" encoding="UTF-8"?>
<svg xmlns="http://www.w3.org/2000/svg" viewBox="0 0 2930.62 577.38">
  <defs>
    <style>
      .cls-1 {
        stroke: #c6c6c6;
        stroke-linecap: round;
        stroke-width: 22px;
      }

      .cls-1, .cls-2 {
        fill: none;
        stroke-miterlimit: 10;
      }

      .cls-3 {
        fill: #f6f6f6;
      }

      .cls-4 {
        fill: #b3cde0;
      }

      .cls-2 {
        stroke: #b3cde0;
        stroke-width: 9px;
      }

      .cls-5 {
        fill: #005b96;
      }

      .cls-6 {
        fill: #c6c6c6;
      }
    </style>
  </defs>
  <g id="Capa_4_copia" data-name="Capa 4 copia">
    <g>
      <line class="cls-1" x1="2429.57" y1="169.29" x2="2429.57" y2="494.15"/>
      <line class="cls-1" x1="2592" y1="331.72" x2="2267.14" y2="331.72"/>
      <line class="cls-1" x1="2544.43" y1="446.57" x2="2314.71" y2="216.86"/>
      <line class="cls-1" x1="2314.71" y1="446.57" x2="2544.43" y2="216.86"/>
    </g>
    <path class="cls-4" d="M2429.57,223.43c59.71,0,108.29,48.58,108.29,108.29s-48.58,108.29-108.29,108.29-108.29-48.58-108.29-108.29,48.58-108.29,108.29-108.29m0-27.07c-74.76,0-135.36,60.6-135.36,135.36s60.6,135.36,135.36,135.36,135.36-60.6,135.36-135.36-60.6-135.36-135.36-135.36h0Z"/>
    <circle class="cls-4" cx="2429.57" cy="331.72" r="40.61"/>
    <circle class="cls-2" cx="2429.57" cy="331.72" r="54.14"/>
    <g>
      <path class="cls-4" d="M1563.2,172.81c-87.76,0-158.91,71.15-158.91,158.91s71.15,158.91,158.91,158.91,158.91-71.15,158.91-158.91-71.15-158.91-158.91-158.91Zm0,288.93c-71.69,0-130.02-58.33-130.02-130.02s58.33-130.02,130.02-130.02,130.02,58.33,130.02,130.02-58.33,130.02-130.02,130.02Z"/>
      <path class="cls-6" d="M1527.19,334.32l-13.86,22.21-20.98,33.62c-2.24,3.55-1.72,8.18,1.26,11.16,1.76,1.73,4.06,2.64,6.39,2.64,1.66,0,3.32-.45,4.78-1.37l33.61-20.98,22.24-13.86c-17.89-1.26-32.17-15.53-33.44-33.41Z"/>
      <path class="cls-6" d="M1621.62,260.85l-33.61,20.98-22.23,13.87c17.89,1.26,32.18,15.55,33.44,33.44l13.86-22.22,20.98-33.62c2.24-3.58,1.72-8.2-1.28-11.17-2.98-2.98-7.66-3.5-11.16-1.28Z"/>
      <path class="cls-3" d="M1565.78,295.71c-.85-.06-1.71-.1-2.58-.1-19.95,0-36.12,16.17-36.12,36.12,0,.88,.04,1.74,.1,2.6,1.27,17.88,15.56,32.16,33.44,33.41,.85,.06,1.71,.1,2.57,.1,19.95,0,36.12-16.17,36.12-36.12,0-.87-.04-1.72-.1-2.57-1.26-17.89-15.55-32.18-33.44-33.44Z"/>
    </g>
    <g>
      <path class="cls-4" d="M128.18,470.64c-16.47,0-31.23-1.97-44.29-5.91-13.07-3.94-24.52-8.94-34.36-15.03-9.85-6.08-18.08-12.35-24.7-18.79-6.63-6.44-11.54-12.35-14.76-17.72-5.02-6.44-8.15-12.16-9.4-17.18-1.26-5.01-.72-9.93,1.61-14.77,2.32-4.83,6.71-9.93,13.15-15.3,6.44-5.72,12.43-8.67,17.99-8.86,5.55-.17,10.91,1.53,16.11,5.1,5.18,3.58,10.29,8.59,15.3,15.03,8.59,11.46,18.25,19.6,28.99,24.43,10.74,4.83,21.48,7.25,32.21,7.25,13.96,0,26.12-1.88,36.51-5.64,10.38-3.76,18.43-9.4,24.16-16.91,5.72-7.52,8.59-17.18,8.59-28.99,0-9.66-2.87-17.62-8.59-23.89-5.73-6.26-13.51-11.63-23.36-16.11-9.85-4.47-20.67-8.59-32.48-12.35-11.81-3.76-23.81-7.79-35.97-12.08-8.95-3.22-17.63-6.89-26.04-11.01-8.41-4.11-16.38-8.86-23.89-14.23-7.52-5.37-14.05-11.72-19.6-19.06-5.55-7.33-9.85-15.84-12.89-25.5-3.05-9.66-4.56-20.75-4.56-33.29,0-20.4,5.01-38.47,15.03-54.23,10.02-15.75,23.89-28.19,41.61-37.31,17.72-9.13,38.2-13.69,61.47-13.69,14.67,0,27.83,1.34,39.46,4.03,11.63,2.68,21.65,6.09,30.07,10.2,8.41,4.12,15.3,8.24,20.67,12.35,5.37,4.12,9.3,7.61,11.81,10.47,8.59,8.24,13.33,15.22,14.23,20.94,.89,5.73-2.42,13.25-9.93,22.55-7.52,9.31-14.77,14.41-21.74,15.3-6.98,.9-14.95-1.88-23.89-8.32-5.37-5.72-11.01-10.47-16.91-14.23-5.91-3.76-12.35-6.53-19.33-8.32-6.98-1.79-15.3-2.69-24.97-2.69-7.16,0-14.05,.99-20.67,2.95-6.63,1.97-12.27,4.83-16.91,8.59-4.66,3.76-8.32,8.32-11.01,13.69s-4.03,11.46-4.03,18.25c0,8.95,2.59,16.38,7.79,22.28,5.18,5.91,12.26,10.74,21.21,14.5,8.94,3.76,18.97,7.25,30.07,10.47,11.09,3.22,22.36,6.63,33.82,10.2,11.81,3.94,23.44,8.59,34.9,13.96,11.45,5.37,21.65,12.08,30.6,20.13,8.94,8.05,16.11,18.08,21.48,30.07,5.37,12,8.05,26.58,8.05,43.76,0,19.69-3.76,36.87-11.28,51.54-7.52,14.68-17.81,26.67-30.87,35.97-13.07,9.31-27.38,16.2-42.95,20.67-15.57,4.47-31.41,6.71-47.51,6.71Z"/>
      <path class="cls-4" d="M433.66,469.57c-23.27,0-43.67-3.85-61.21-11.54-17.54-7.69-32.04-18.07-43.49-31.14-11.46-13.06-20.13-27.73-26.04-44.03-5.91-16.28-8.86-33.2-8.86-50.74,0-25.77,5.91-48.67,17.72-68.72,11.81-20.04,28.19-35.79,49.13-47.25,20.94-11.45,45.01-17.18,72.21-17.18,19.33,0,36.32,3.05,51.01,9.13,14.67,6.09,26.93,14.05,36.78,23.89,9.84,9.85,17.36,20.67,22.55,32.48,5.18,11.81,7.79,23.27,7.79,34.36,0,18.98-4.56,32.75-13.69,41.34-9.13,8.59-20.49,12.89-34.09,12.89h-141.74c.35,12.17,4.2,22.73,11.54,31.68,7.33,8.95,16.64,15.84,27.92,20.67,11.28,4.83,22.82,7.25,34.63,7.25,8.94,0,16.82-.54,23.62-1.61,6.8-1.07,12.7-2.42,17.72-4.03,5.01-1.61,9.48-3.3,13.42-5.1,3.93-1.79,7.42-3.4,10.47-4.83,3.04-1.43,5.99-2.32,8.86-2.68,4.3-.35,8.41,.54,12.35,2.68,3.93,2.15,7.15,5.91,9.66,11.28,2.15,3.58,3.67,6.9,4.56,9.93,.89,3.05,1.34,6,1.34,8.86,0,7.16-4.29,13.96-12.89,20.4-8.59,6.44-20.67,11.73-36.24,15.84-15.57,4.11-33.92,6.17-55.03,6.17Zm-71.94-154.63h110.06c6.08,0,10.65-.98,13.69-2.95,3.04-1.96,4.56-6.17,4.56-12.62,0-8.23-2.51-15.57-7.52-22.01-5.02-6.44-11.81-11.63-20.4-15.57-8.59-3.94-18.44-5.91-29.53-5.91-13.25,0-25.23,2.69-35.97,8.05-10.74,5.37-19.24,12.53-25.5,21.48-6.27,8.95-9.4,18.79-9.4,29.53Z"/>
      <path class="cls-4" d="M814.86,464.74c-10.74,0-18.52-1.97-23.35-5.91-4.83-3.93-7.43-9.3-7.79-16.11l3.76-17.72c-2.87,4.66-7.7,10.12-14.5,16.38-6.8,6.27-15.66,11.81-26.58,16.64-10.92,4.83-24.25,7.25-40,7.25-16.83,0-32.67-3.49-47.52-10.47-14.86-6.98-28.01-16.64-39.46-28.99-11.46-12.35-20.4-26.48-26.84-42.42-6.44-15.92-9.66-33.02-9.66-51.27s3.22-34.09,9.66-49.66c6.44-15.57,15.48-29.44,27.11-41.61,11.63-12.16,24.78-21.74,39.46-28.72,14.67-6.98,30.42-10.47,47.25-10.47,14.31,0,26.58,1.97,36.78,5.91,10.2,3.94,18.88,8.86,26.04,14.76,7.16,5.91,13.06,12.08,17.72,18.52l-2.68-15.57c-.36-7.87,1.96-13.87,6.98-17.99,5.01-4.11,13.06-6.17,24.16-6.17,9.66,0,16.73,1.53,21.21,4.56,4.47,3.05,7.25,7.25,8.32,12.62,1.07,5.37,1.61,11.27,1.61,17.72v195.97c0,6.09-.54,11.64-1.61,16.64-1.07,5.02-3.85,8.95-8.32,11.81-4.48,2.86-11.73,4.29-21.74,4.29Zm-98.79-62.28c11.81,0,22.63-3.04,32.48-9.13,9.84-6.08,17.62-14.4,23.35-24.97,5.72-10.55,8.59-22.28,8.59-35.17,0-13.6-2.95-25.59-8.86-35.97-5.91-10.38-13.88-18.61-23.89-24.7-10.03-6.08-20.94-9.13-32.75-9.13-13.25,0-25.06,3.14-35.44,9.4-10.38,6.27-18.52,14.68-24.43,25.23-5.91,10.56-8.86,22.47-8.86,35.7s3.04,24.52,9.13,34.9c6.08,10.38,14.4,18.61,24.97,24.7,10.55,6.09,22.46,9.13,35.7,9.13Z"/>
      <path class="cls-4" d="M935.12,465.27c-10.39,0-17.81-1.43-22.28-4.29-4.48-2.86-7.34-6.89-8.59-12.08-1.26-5.18-1.88-10.65-1.88-16.38V123.27c0-5.72,.71-11.09,2.15-16.11,1.43-5.01,4.47-9.03,9.13-12.08,4.65-3.04,11.99-4.56,22.01-4.56h113.29c16.11,0,31.58,2.68,46.44,8.05,14.85,5.37,28.36,13.51,40.54,24.43,12.16,10.92,21.74,24.25,28.72,40,6.98,15.75,10.47,34.01,10.47,54.76s-3.49,39.02-10.47,54.76c-6.98,15.75-16.56,28.91-28.72,39.46-12.17,10.56-25.77,18.52-40.8,23.89-15.03,5.37-30.6,8.05-46.71,8.05h-80.53v89.13c0,5.73-.63,11.1-1.88,16.11-1.26,5.02-4.12,8.95-8.59,11.81-4.48,2.86-11.9,4.29-22.28,4.29Zm32.75-186.84h81.07c11.09,0,21.29-2.23,30.6-6.71,9.3-4.47,16.73-11.27,22.28-20.4,5.55-9.13,8.32-20.49,8.32-34.09,0-12.52-2.51-23.36-7.52-32.48-5.02-9.13-12.17-16.19-21.48-21.21-9.31-5.01-20.23-7.52-32.75-7.52h-80.53v122.41Z"/>
      <path class="cls-4" d="M1252.97,465.81c-10.02,0-17.27-1.53-21.74-4.56-4.48-3.04-7.25-7.06-8.32-12.08-1.07-5.01-1.61-10.55-1.61-16.64V233.33c0-6.08,.62-11.63,1.88-16.64,1.25-5.01,4.11-8.86,8.59-11.54,4.47-2.69,11.72-4.03,21.74-4.03s16.73,1.26,21.21,3.76c4.47,2.51,7.33,5.73,8.59,9.66,1.25,3.94,1.88,7.52,1.88,10.74l-4.29,9.66c1.79-2.86,4.29-6.35,7.52-10.47,3.22-4.11,7.52-8.23,12.89-12.35,5.37-4.11,11.81-7.52,19.33-10.2,7.52-2.69,16.46-4.03,26.84-4.03,4.29,0,8.86,.45,13.69,1.34,4.83,.9,9.66,2.15,14.5,3.76,4.83,1.61,9.21,3.67,13.15,6.17,3.93,2.51,6.98,5.46,9.13,8.86,2.15,3.41,3.22,7.25,3.22,11.54,0,11.46-2.87,21.12-8.59,28.99-5.73,7.88-12.53,11.81-20.4,11.81-5.37,0-9.31-.54-11.81-1.61-2.51-1.07-4.56-2.23-6.17-3.49-1.61-1.25-3.94-2.42-6.98-3.49-3.05-1.07-7.79-1.61-14.23-1.61-5.37,0-10.83,.9-16.37,2.68-5.55,1.8-10.65,4.48-15.3,8.05-4.66,3.58-8.41,8.05-11.27,13.42-2.87,5.37-4.3,11.64-4.3,18.79v130.47c0,6.09-.54,11.54-1.61,16.38-1.07,4.83-3.94,8.68-8.59,11.54-4.66,2.86-12.17,4.29-22.55,4.29Z"/>
      <path class="cls-4" d="M1883.47,467.42c-16.83,0-33.38-3.05-49.66-9.13-16.29-6.08-31.06-14.85-44.29-26.31-13.25-11.45-23.62-25.5-31.14-42.15-7.52-16.64-11.28-35.52-11.28-56.64s3.76-39.91,11.28-56.38c7.52-16.46,17.8-30.42,30.87-41.88,13.06-11.45,27.65-20.22,43.76-26.31,16.11-6.08,32.57-9.13,49.4-9.13,12.89,0,24.87,1.8,35.97,5.37,11.09,3.58,20.75,7.88,28.99,12.89,8.23,5.02,14.14,10.03,17.72,15.03,5.01,4.29,9.13,8.41,12.35,12.35,3.22,3.94,4.29,8.78,3.22,14.5-1.07,3.58-2.68,6.9-4.83,9.93-2.15,3.05-4.83,6.18-8.05,9.4-8.59,10.03-17.18,13.78-25.77,11.27-4.66-2.5-9.31-5.28-13.96-8.32-4.66-3.04-9.31-5.91-13.96-8.59-4.66-2.69-9.58-4.92-14.76-6.71-5.19-1.79-10.83-2.69-16.91-2.69-13.25,0-25.15,2.95-35.7,8.86-10.56,5.91-18.79,14.05-24.7,24.43-5.91,10.39-8.86,22.37-8.86,35.97s2.95,25.69,8.86,36.24c5.91,10.56,14.04,18.79,24.43,24.7,10.38,5.91,22.01,8.86,34.9,8.86,6.8,0,13.06-.81,18.79-2.42,5.72-1.61,10.92-3.76,15.57-6.44,4.65-2.69,8.41-5.45,11.27-8.32,3.94-2.5,7.52-4.83,10.74-6.98,3.22-2.15,6.8-3.22,10.74-3.22s8.05,1.53,12.35,4.56c4.3,3.05,8.94,7.79,13.96,14.23,4.65,5.37,7.25,10.56,7.79,15.57,.54,5.02-.63,9.85-3.49,14.49-2.87,4.66-7.34,9.13-13.42,13.42-4.3,3.94-10.56,8.24-18.79,12.89-8.24,4.66-17.81,8.59-28.72,11.81-10.92,3.22-22.47,4.83-34.63,4.83Z"/>
      <path class="cls-4" d="M2132.4,440.04l-124.56-190.6c-6.09-9.66-8.51-17.72-7.25-24.16,1.25-6.44,6.89-12.7,16.91-18.79,11.09-6.8,19.77-9.48,26.04-8.05,6.26,1.43,12.62,7.16,19.06,17.18l98.25,153.02-28.46,71.41Zm-49.93,132.08c-11.46-5.37-18.17-11.19-20.13-17.45-1.97-6.27-.45-14.59,4.56-24.97l138.52-310.33c5.01-11.45,10.47-18.34,16.37-20.67,5.91-2.33,14.77-.98,26.58,4.03,11.09,5.02,17.62,10.65,19.6,16.91,1.96,6.27,.62,14.41-4.03,24.43l-139.59,311.94c-4.66,11.45-9.85,18.25-15.57,20.4-5.73,2.15-14.5,.71-26.31-4.3Z"/>
      <path class="cls-4" d="M2678.27,465.27c-10.02,0-17.27-1.53-21.74-4.56-4.48-3.04-7.25-6.98-8.32-11.81-1.07-4.83-1.61-10.29-1.61-16.38V231.72c0-5.72,.62-10.91,1.88-15.57,1.25-4.65,4.11-8.32,8.59-11.01,4.47-2.69,11.72-4.03,21.74-4.03,8.59,0,15.03,1.07,19.33,3.22,4.3,2.15,7.16,4.93,8.59,8.32,1.43,3.41,2.23,6.63,2.42,9.66,.17,3.05,.44,5.46,.8,7.25l-2.15,17.18c2.15-5.72,5.72-11.27,10.74-16.64,5.01-5.37,11.09-10.28,18.25-14.76,7.16-4.47,14.94-8.05,23.36-10.74,8.4-2.68,17.09-4.03,26.04-4.03,16.82,0,31.85,3.04,45.1,9.13,13.24,6.09,24.61,14.68,34.09,25.77,9.48,11.1,16.73,24.34,21.74,39.73,5.01,15.39,7.52,32.4,7.52,51v106.84c0,6.09-.63,11.54-1.88,16.38-1.26,4.83-4.03,8.68-8.32,11.54-4.29,2.86-11.64,4.29-22.01,4.29s-17.81-1.53-22.28-4.56c-4.48-3.04-7.34-6.98-8.59-11.81-1.26-4.83-1.88-10.29-1.88-16.38v-106.31c0-12.89-2.15-23.98-6.44-33.29-4.3-9.3-10.74-16.55-19.33-21.74-8.59-5.18-19.33-7.79-32.21-7.79-12.17,0-22.91,2.6-32.21,7.79-9.31,5.19-16.47,12.44-21.48,21.74-5.02,9.31-7.52,20.4-7.52,33.29v106.84c0,6.09-.54,11.54-1.61,16.38-1.07,4.83-3.85,8.68-8.32,11.54-4.48,2.86-11.91,4.29-22.28,4.29Z"/>
    </g>
  </g>
  <g id="Capa_9" data-name="Capa 9">
    <g>
      <path class="cls-5" d="M1257.24,129c-2.9,0-4.98-.43-6.23-1.27-1.25-.85-2.05-1.97-2.4-3.38-.35-1.4-.52-2.95-.52-4.65V33.3c0-3.5,.7-5.9,2.1-7.2,1.4-1.3,3.9-1.95,7.5-1.95h58.35c1.7,0,3.23,.18,4.58,.52,1.35,.35,2.42,1.18,3.23,2.48,.8,1.3,1.2,3.4,1.2,6.3s-.43,4.83-1.27,6.07c-.85,1.25-1.98,2.05-3.38,2.4-1.4,.35-2.95,.53-4.65,.53h-49.35v25.05h33.9c1.7,0,3.2,.18,4.5,.52,1.3,.35,2.27,1.1,2.93,2.25,.65,1.15,.97,3.03,.97,5.62s-.35,4.3-1.05,5.4c-.7,1.1-1.68,1.8-2.92,2.1-1.25,.3-2.78,.45-4.58,.45h-33.75v36c0,1.7-.18,3.23-.52,4.57-.35,1.35-1.18,2.45-2.48,3.3-1.3,.85-3.35,1.27-6.15,1.27Z"/>
      <path class="cls-5" d="M1374.54,130.05c-4.7,0-9.35-.95-13.95-2.85-4.6-1.9-8.73-4.52-12.38-7.88-3.65-3.35-6.53-7.35-8.62-12-2.1-4.65-3.15-9.72-3.15-15.23s.98-10.25,2.93-14.85c1.95-4.6,4.67-8.65,8.17-12.15s7.52-6.23,12.08-8.18c4.55-1.95,9.42-2.92,14.62-2.92,7.1,0,13.5,1.68,19.2,5.02,5.7,3.35,10.25,7.88,13.65,13.58,3.4,5.7,5.1,12.15,5.1,19.35,0,5.7-1.05,10.9-3.15,15.6-2.1,4.7-4.95,8.73-8.55,12.08-3.6,3.35-7.65,5.92-12.15,7.73-4.5,1.8-9.1,2.7-13.8,2.7Zm-.3-17.85c3.3,0,6.47-.83,9.52-2.48,3.05-1.65,5.55-4.02,7.5-7.12,1.95-3.1,2.92-6.75,2.92-10.95,0-3.9-.85-7.35-2.55-10.35-1.7-3-4.08-5.32-7.12-6.97-3.05-1.65-6.52-2.48-10.42-2.48-3.6,0-6.9,.88-9.9,2.62-3,1.75-5.38,4.12-7.12,7.12-1.75,3-2.62,6.4-2.62,10.2,0,4.2,.95,7.83,2.85,10.88,1.9,3.05,4.37,5.4,7.43,7.05,3.05,1.65,6.22,2.48,9.52,2.48Z"/>
      <path class="cls-5" d="M1426.74,56.55l15.45,.15,20.7-.6c1.7,0,3.23,.18,4.58,.52,1.35,.35,2.42,1.15,3.22,2.4,.8,1.25,1.2,3.28,1.2,6.08s-.4,4.68-1.2,5.92c-.8,1.25-1.85,2.08-3.15,2.48-1.3,.4-2.8,.6-4.5,.6l-20.1-.45-16.65,.15c-2.6-.1-4.38-.8-5.32-2.1-.95-1.3-1.43-3.5-1.43-6.6s.57-5.18,1.73-6.52c1.15-1.35,2.97-2.03,5.48-2.03Zm33.75,72.45c-4.9,0-9.1-.5-12.6-1.5-3.5-1-6.38-2.55-8.62-4.65s-3.88-4.82-4.88-8.18c-1-3.35-1.5-7.32-1.5-11.92V39.15c0-1.7,.15-3.23,.45-4.57,.3-1.35,1.07-2.4,2.32-3.15,1.25-.75,3.27-1.12,6.08-1.12s4.82,.4,6.08,1.2c1.25,.8,2.05,1.88,2.4,3.23,.35,1.35,.52,2.88,.52,4.57v62.85c0,2.1,.17,3.8,.52,5.1,.35,1.3,.9,2.28,1.65,2.92,.75,.65,1.75,1.1,3,1.35,1.25,.25,2.78,.38,4.58,.38,1.9,0,3.52,.15,4.88,.45,1.35,.3,2.37,1.03,3.08,2.17,.7,1.15,1.05,3.03,1.05,5.62,0,2.8-.43,4.83-1.27,6.08-.85,1.25-1.95,2.02-3.3,2.32-1.35,.3-2.83,.45-4.42,.45Z"/>
      <path class="cls-5" d="M1517.49,130.05c-4.7,0-9.35-.95-13.95-2.85-4.6-1.9-8.73-4.52-12.38-7.88-3.65-3.35-6.53-7.35-8.62-12-2.1-4.65-3.15-9.72-3.15-15.23s.97-10.25,2.93-14.85c1.95-4.6,4.67-8.65,8.17-12.15,3.5-3.5,7.52-6.23,12.08-8.18,4.55-1.95,9.42-2.92,14.62-2.92,7.1,0,13.5,1.68,19.2,5.02,5.7,3.35,10.25,7.88,13.65,13.58,3.4,5.7,5.1,12.15,5.1,19.35,0,5.7-1.05,10.9-3.15,15.6-2.1,4.7-4.95,8.73-8.55,12.08-3.6,3.35-7.65,5.92-12.15,7.73-4.5,1.8-9.1,2.7-13.8,2.7Zm-.3-17.85c3.3,0,6.47-.83,9.52-2.48,3.05-1.65,5.55-4.02,7.5-7.12,1.95-3.1,2.92-6.75,2.92-10.95,0-3.9-.85-7.35-2.55-10.35-1.7-3-4.08-5.32-7.12-6.97-3.05-1.65-6.52-2.48-10.42-2.48-3.6,0-6.9,.88-9.9,2.62-3,1.75-5.38,4.12-7.12,7.12-1.75,3-2.62,6.4-2.62,10.2,0,4.2,.95,7.83,2.85,10.88,1.9,3.05,4.37,5.4,7.43,7.05,3.05,1.65,6.22,2.48,9.53,2.48Z"/>
      <path class="cls-5" d="M1569.69,56.55l15.45,.15,20.7-.6c1.7,0,3.22,.18,4.57,.52,1.35,.35,2.42,1.15,3.23,2.4,.8,1.25,1.2,3.28,1.2,6.08s-.4,4.68-1.2,5.92c-.8,1.25-1.85,2.08-3.15,2.48-1.3,.4-2.8,.6-4.5,.6l-20.1-.45-16.65,.15c-2.6-.1-4.38-.8-5.33-2.1-.95-1.3-1.42-3.5-1.42-6.6s.57-5.18,1.73-6.52c1.15-1.35,2.97-2.03,5.47-2.03Zm33.75,72.45c-4.9,0-9.1-.5-12.6-1.5-3.5-1-6.38-2.55-8.62-4.65s-3.88-4.82-4.88-8.18c-1-3.35-1.5-7.32-1.5-11.92V39.15c0-1.7,.15-3.23,.45-4.57,.3-1.35,1.07-2.4,2.33-3.15,1.25-.75,3.27-1.12,6.08-1.12s4.82,.4,6.08,1.2c1.25,.8,2.05,1.88,2.4,3.23,.35,1.35,.53,2.88,.53,4.57v62.85c0,2.1,.17,3.8,.53,5.1,.35,1.3,.9,2.28,1.65,2.92,.75,.65,1.75,1.1,3,1.35,1.25,.25,2.78,.38,4.58,.38,1.9,0,3.53,.15,4.88,.45,1.35,.3,2.37,1.03,3.08,2.17,.7,1.15,1.05,3.03,1.05,5.62,0,2.8-.43,4.83-1.28,6.08-.85,1.25-1.95,2.02-3.3,2.32-1.35,.3-2.83,.45-4.42,.45Z"/>
      <path class="cls-5" d="M1661.79,130.05c-6.5,0-12.2-1.08-17.1-3.22-4.9-2.15-8.95-5.05-12.15-8.7-3.2-3.65-5.62-7.75-7.28-12.3-1.65-4.55-2.47-9.27-2.47-14.18,0-7.2,1.65-13.6,4.95-19.2,3.3-5.6,7.88-10,13.72-13.2,5.85-3.2,12.57-4.8,20.17-4.8,5.4,0,10.15,.85,14.25,2.55,4.1,1.7,7.52,3.93,10.28,6.67,2.75,2.75,4.85,5.78,6.3,9.08,1.45,3.3,2.17,6.5,2.17,9.6,0,5.3-1.27,9.15-3.82,11.55-2.55,2.4-5.73,3.6-9.53,3.6h-39.6c.1,3.4,1.17,6.35,3.22,8.85,2.05,2.5,4.65,4.42,7.8,5.77,3.15,1.35,6.38,2.02,9.67,2.02,2.5,0,4.7-.15,6.6-.45,1.9-.3,3.55-.68,4.95-1.12,1.4-.45,2.65-.92,3.75-1.43,1.1-.5,2.07-.95,2.92-1.35,.85-.4,1.67-.65,2.47-.75,1.2-.1,2.35,.15,3.45,.75,1.1,.6,2,1.65,2.7,3.15,.6,1,1.02,1.93,1.27,2.77,.25,.85,.38,1.68,.38,2.48,0,2-1.2,3.9-3.6,5.7-2.4,1.8-5.78,3.28-10.12,4.43s-9.48,1.72-15.38,1.72Zm-20.1-43.2h30.75c1.7,0,2.97-.27,3.82-.83,.85-.55,1.28-1.73,1.28-3.52,0-2.3-.7-4.35-2.1-6.15-1.4-1.8-3.3-3.25-5.7-4.35-2.4-1.1-5.15-1.65-8.25-1.65-3.7,0-7.05,.75-10.05,2.25s-5.38,3.5-7.12,6c-1.75,2.5-2.62,5.25-2.62,8.25Z"/>
      <path class="cls-5" d="M1742.34,129.45c-4.7,0-9.33-.85-13.88-2.55-4.55-1.7-8.68-4.15-12.38-7.35-3.7-3.2-6.6-7.12-8.7-11.77-2.1-4.65-3.15-9.92-3.15-15.82s1.05-11.15,3.15-15.75c2.1-4.6,4.97-8.5,8.62-11.7,3.65-3.2,7.72-5.65,12.22-7.35,4.5-1.7,9.1-2.55,13.8-2.55,3.6,0,6.95,.5,10.05,1.5,3.1,1,5.8,2.2,8.1,3.6,2.3,1.4,3.95,2.8,4.95,4.2,1.4,1.2,2.55,2.35,3.45,3.45,.9,1.1,1.2,2.45,.9,4.05-.3,1-.75,1.93-1.35,2.77-.6,.85-1.35,1.73-2.25,2.62-2.4,2.8-4.8,3.85-7.2,3.15-1.3-.7-2.6-1.47-3.9-2.33-1.3-.85-2.6-1.65-3.9-2.4-1.3-.75-2.68-1.37-4.12-1.88-1.45-.5-3.03-.75-4.73-.75-3.7,0-7.03,.82-9.97,2.48-2.95,1.65-5.25,3.93-6.9,6.82-1.65,2.9-2.47,6.25-2.47,10.05s.83,7.18,2.47,10.12c1.65,2.95,3.92,5.25,6.83,6.9,2.9,1.65,6.15,2.48,9.75,2.48,1.9,0,3.65-.23,5.25-.68,1.6-.45,3.05-1.05,4.35-1.8,1.3-.75,2.35-1.52,3.15-2.33,1.1-.7,2.1-1.35,3-1.95,.9-.6,1.9-.9,3-.9s2.25,.43,3.45,1.28c1.2,.85,2.5,2.17,3.9,3.97,1.3,1.5,2.03,2.95,2.18,4.35,.15,1.4-.18,2.75-.98,4.05-.8,1.3-2.05,2.55-3.75,3.75-1.2,1.1-2.95,2.3-5.25,3.6-2.3,1.3-4.98,2.4-8.02,3.3-3.05,.9-6.28,1.35-9.68,1.35Z"/>
      <path class="cls-5" d="M1844.19,128.7c-3,0-5.17-.55-6.53-1.65-1.35-1.1-2.08-2.6-2.17-4.5l1.05-4.95c-.8,1.3-2.15,2.83-4.05,4.57-1.9,1.75-4.38,3.3-7.43,4.65-3.05,1.35-6.78,2.02-11.17,2.02-4.7,0-9.13-.98-13.27-2.93-4.15-1.95-7.83-4.65-11.03-8.1-3.2-3.45-5.7-7.4-7.5-11.85-1.8-4.45-2.7-9.23-2.7-14.33s.9-9.52,2.7-13.88c1.8-4.35,4.32-8.22,7.57-11.62,3.25-3.4,6.92-6.07,11.03-8.02,4.1-1.95,8.5-2.92,13.2-2.92,4,0,7.42,.55,10.27,1.65,2.85,1.1,5.27,2.48,7.28,4.12,2,1.65,3.65,3.38,4.95,5.17l-.75-4.35c-.1-2.2,.55-3.87,1.95-5.02,1.4-1.15,3.65-1.73,6.75-1.73,2.7,0,4.67,.43,5.92,1.28,1.25,.85,2.02,2.02,2.33,3.52,.3,1.5,.45,3.15,.45,4.95v54.75c0,1.7-.15,3.25-.45,4.65-.3,1.4-1.08,2.5-2.33,3.3-1.25,.8-3.28,1.2-6.08,1.2Zm-27.6-17.4c3.3,0,6.32-.85,9.07-2.55,2.75-1.7,4.92-4.02,6.53-6.98,1.6-2.95,2.4-6.23,2.4-9.82,0-3.8-.83-7.15-2.47-10.05-1.65-2.9-3.88-5.2-6.68-6.9-2.8-1.7-5.85-2.55-9.15-2.55-3.7,0-7,.88-9.9,2.62-2.9,1.75-5.17,4.1-6.83,7.05-1.65,2.95-2.47,6.28-2.47,9.98s.85,6.85,2.55,9.75c1.7,2.9,4.02,5.2,6.98,6.9,2.95,1.7,6.27,2.55,9.97,2.55Z"/>
    </g>
  </g>
</svg>