<?xml version="1.0" encoding="UTF-8"?>
<svg id="Capa_3" data-name="Capa 3" xmlns="http://www.w3.org/2000/svg" viewBox="0 0 2900 976.27">
  <defs>
    <style>
      .cls-1 {
        fill: #16237f;
      }
    </style>
  </defs>
  <path class="cls-1" d="M458.69,976.27L862.87,424.89c.58-.79,1.83-.37,1.81,.61l-4.91,249.21c-.02,1.12,.88,2.04,2,2.04h10.49L1339.71,32.58h-91.27l-180.08,235.49c-.57,.8-1.83,.39-1.82-.59l2.47-217.35L379.73,975.02l78.95,1.25Z"/>
  <polygon class="cls-1" points="988.81 676.75 1442.48 32.58 1377.31 32.58 908.6 676.75 988.81 676.75"/>
  <polygon class="cls-1" points="1023.9 676.75 1081.55 676.75 1543.99 32.58 1481.33 32.58 1023.9 676.75"/>
  <path class="cls-1" d="M1117.89,676.75L1550.26,66.42l-2.26,481.58h807l-84.13,128.75-910.87,.25,1.07-210.09c-.03-1.09-.91-1.95-2-1.95h-7.88c-1.68,0-3.25,.85-4.18,2.26l-137.63,209.54h-91.49Z"/>
  <polygon class="cls-1" points="1010.11 0 1070.27 0 348.4 976.27 270.7 976.27 1010.11 0"/>
  <polygon class="cls-1" points="132.84 976.27 879.78 0 980.03 0 235.61 976.27 132.84 976.27"/>
  <polygon class="cls-1" points="739.41 0 839.67 0 102.77 976.27 0 976.27 739.41 0"/>
  <polygon class="cls-1" points="2391.18 548 2485.18 548 2397.45 676.75 2305.96 676.75 2391.18 548"/>
  <polygon class="cls-1" points="2517.76 548 2585.44 548 2502.72 676.75 2432.54 676.75 2517.76 548"/>
  <polygon class="cls-1" points="2625.54 548 2693.22 548 2610.5 676.75 2540.32 676.75 2625.54 548"/>
  <polygon class="cls-1" points="2734.57 548 2790.97 548 2705.75 676.75 2649.35 676.75 2734.57 548"/>
  <polygon class="cls-1" points="2818.54 548 2853.63 548 2770.92 676.75 2733.32 676.75 2818.54 548"/>
  <polygon class="cls-1" points="2877.44 548 2900 548 2818.54 676.75 2794.73 676.75 2877.44 548"/>
</svg>