<?xml version="1.0" encoding="UTF-8"?>
<svg xmlns="http://www.w3.org/2000/svg" viewBox="0 0 1840.57 480.81">
  <defs>
    <style>
      .cls-1 {
        fill: #ea1b1b;
      }

      .cls-2 {
        fill: #16237f;
      }
    </style>
  </defs>
  <g id="Capa_2" data-name="Capa 2">
    <g>
      <g id="Capa_2-2" data-name="Capa 2">
        <path class="cls-1" d="M244.55,0L0,240.4l244.55,240.4,236.3-239.95L244.55,0ZM31.89,240.86L244.55,28.28l208.98,212.58-208.98,212.58L31.89,240.86Z"/>
      </g>
      <g id="Capa_3_copia" data-name="Capa 3 copia">
        <polygon class="cls-2" points="147.84 320.8 200.76 94.54 244.55 235.04 282.87 94.54 341.26 320.8 315.71 344.52 285.6 237.78 244.55 412.03 200.76 237.78 171.56 346.34 147.84 320.8"/>
      </g>
    </g>
  </g>
  <g id="Capa_3" data-name="Capa 3">
    <path class="cls-2" d="M702.96,468.32l188.34-256.93c.27-.37,.85-.17,.84,.28l-2.29,116.13c0,.52,.41,.95,.93,.95h4.89L1113.5,28.58h-42.53l-83.91,109.73c-.27,.37-.85,.18-.85-.27l1.15-101.28-321.19,430.98,36.79,.58h0Z"/>
    <polygon class="cls-2" points="949.99 328.75 1161.39 28.58 1131.02 28.58 912.61 328.75 949.99 328.75"/>
    <polygon class="cls-2" points="966.34 328.75 993.2 328.75 1208.69 28.58 1179.49 28.58 966.34 328.75"/>
    <path class="cls-2" d="M1010.14,328.75L1211.61,44.35l-1.05,224.41h376.05l-39.2,60-424.45,.12,.5-97.9c-.01-.51-.42-.91-.93-.91h-3.67c-.78,0-1.51,.4-1.95,1.05l-64.13,97.64h-42.63Z"/>
    <polygon class="cls-2" points="959.91 13.4 987.95 13.4 651.57 468.32 615.36 468.32 959.91 13.4"/>
    <polygon class="cls-2" points="551.12 468.32 899.18 13.4 945.89 13.4 599.01 468.32 551.12 468.32"/>
    <polygon class="cls-2" points="833.77 13.4 880.49 13.4 537.11 468.32 489.22 468.32 833.77 13.4"/>
    <polygon class="cls-2" points="1603.47 268.76 1647.27 268.76 1606.39 328.75 1563.76 328.75 1603.47 268.76"/>
    <polygon class="cls-2" points="1662.45 268.76 1693.99 268.76 1655.44 328.75 1622.74 328.75 1662.45 268.76"/>
    <polygon class="cls-2" points="1712.67 268.76 1744.21 268.76 1705.67 328.75 1672.96 328.75 1712.67 268.76"/>
    <polygon class="cls-2" points="1763.48 268.76 1789.76 268.76 1750.05 328.75 1723.77 328.75 1763.48 268.76"/>
    <polygon class="cls-2" points="1802.61 268.76 1818.96 268.76 1780.42 328.75 1762.9 328.75 1802.61 268.76"/>
    <polygon class="cls-2" points="1830.06 268.76 1840.57 268.76 1802.61 328.75 1791.51 328.75 1830.06 268.76"/>
  </g>
</svg>