<?xml version="1.0" encoding="utf-8"?>
<!-- Generator: Adobe Illustrator 25.2.1, SVG Export Plug-In . SVG Version: 6.00 Build 0)  -->
<svg version="1.1" id="Layer_1" xmlns="http://www.w3.org/2000/svg" xmlns:xlink="http://www.w3.org/1999/xlink" x="0px" y="0px"
	 viewBox="0 0 423.9 49" style="enable-background:new 0 0 423.9 49;" xml:space="preserve">
<style type="text/css">
	.st0{fill:#002B56;}
	.st1{fill:#FF0000;}
</style>
<g>
	<g>
		<path class="st0" d="M28.7,3.2h6l-14,16.9l15,18.1h-6L17.7,23.7l-12,14.5h-6.1l15-18.1L0.7,3.2h6.1l11,13.3L28.7,3.2z"/>
		<path class="st0" d="M69.8,30.1v5.5c-3.7,2-7.9,3-12.7,3c-3.9,0-7.2-0.8-9.9-2.4c-2.7-1.6-4.9-3.7-6.5-6.5
			c-1.6-2.8-2.4-5.7-2.4-8.9c0-5.1,1.8-9.4,5.4-12.8c3.6-3.5,8.1-5.2,13.4-5.2c3.7,0,7.7,1,12.2,2.9V11c-4.1-2.3-8.1-3.5-12-3.5
			c-4,0-7.3,1.3-10,3.8s-4,5.7-4,9.5c0,3.8,1.3,7,3.9,9.5c2.6,2.5,5.9,3.7,10,3.7C61.6,34,65.7,32.7,69.8,30.1z"/>
		<path class="st0" d="M88.3,3h3.5l15.7,35.2h-5.1l-4.7-10.4H82.8l-4.4,10.4h-5.1L88.3,3z M95.7,23.4l-5.6-12.7l-5.2,12.7H95.7z"/>
		<path class="st0" d="M111.5,38.2v-35h8.8c3.5,0,6.3,0.9,8.4,2.6c2.1,1.8,3.1,4.1,3.1,7.1c0,2-0.5,3.8-1.5,5.3
			c-1,1.5-2.5,2.6-4.4,3.3c1.1,0.7,2.2,1.7,3.3,3c1.1,1.3,2.6,3.5,4.5,6.6c1.2,2,2.2,3.5,2.9,4.5l1.9,2.5h-6l-1.5-2.3
			c-0.1-0.1-0.2-0.2-0.3-0.4l-1-1.4l-1.5-2.6l-1.7-2.7c-1-1.4-2-2.6-2.8-3.4c-0.9-0.8-1.6-1.5-2.3-1.8c-0.7-0.4-1.9-0.6-3.5-0.6
			h-1.3v15.2H111.5z M118,7.5h-1.5v11h1.9c2.5,0,4.3-0.2,5.2-0.7c0.9-0.4,1.7-1.1,2.2-2c0.5-0.9,0.8-1.9,0.8-3c0-1.1-0.3-2.1-0.9-3
			c-0.6-0.9-1.4-1.5-2.5-1.9C122.2,7.7,120.5,7.5,118,7.5z"/>
		<path class="st0" d="M142.3,3.2h19.8v4.5h-14.8v10.7h14.3v4.5h-14.3v10.9h15.3v4.5h-20.3V3.2z"/>
		<path class="st0" d="M165,3.2h29.2v4.5H182v30.5h-5V7.6h-12V3.2z"/>
	</g>
	<g>
		<path class="st0" d="M223.9,3.2l9.6,11.8L243,3.2h8.4l-13.7,16.9l15,18.1h-8.6l-10.6-13.1l-10.6,13.1h-8.5l14.8-18.1L215.4,3.2
			H223.9z"/>
		<path class="st0" d="M274.6,3.2l15.4,34.9H283l-3.6-8.5h-15.5l-3.4,8.5h-7.1l14.4-34.9H274.6z M265.8,24.5h11.3l-5.9-13.8
			L265.8,24.5z"/>
		<path class="st0" d="M301.1,3.2v34.9h-6.8V3.2H301.1z"/>
		<path class="st0" d="M315.7,3.2v29.7h17v5.3h-23.7V3.2H315.7z"/>
		<path class="st0" d="M344.2,3.2v34.9h-6.8V3.2H344.2z"/>
		<path class="st0" d="M357.9,3.2l20.8,24.4V3.2h6.6v34.9h-5.8l-20.9-24.8v24.8H352V3.2H357.9z"/>
		<path class="st0" d="M411.3,2.8c4.3,0,8.6,1,12.8,2.9v6.2c-4.2-2.2-8.4-3.2-12.5-3.2c-2.6,0-4.8,0.5-6.8,1.5c-2,1-3.5,2.5-4.6,4.4
			c-1.1,1.9-1.6,4-1.6,6.4c0,3.6,1.2,6.4,3.6,8.6c2.4,2.2,5.5,3.3,9.4,3.3c1.1,0,2.1-0.1,3.1-0.3c1-0.2,2.1-0.5,3.5-1.1v-5.8h-5.8
			v-5.3h12.5v14.4c-1.7,1.2-3.8,2.1-6.2,2.8c-2.4,0.7-4.9,1-7.5,1c-3.7,0-7-0.8-10-2.3c-3-1.5-5.3-3.6-7-6.4
			c-1.7-2.7-2.5-5.8-2.5-9.2c0-3.4,0.8-6.5,2.5-9.3c1.7-2.8,4.1-4.9,7.1-6.5C404.2,3.5,407.6,2.8,411.3,2.8z"/>
	</g>
	<rect x="-0.4" y="43.4" class="st1" width="425.2" height="5.3"/>
</g>
</svg>
