<svg id="Layer_1" data-name="Layer 1" xmlns="http://www.w3.org/2000/svg" viewBox="0 0 220.87 44.63"><defs><style>.cls-1{fill:#202766;}.cls-2{fill:#ffe700;}.cls-3{fill:#007c9b;}</style></defs><title>amarillo</title><path class="cls-1" d="M200.56,4.27A19.63,19.63,0,1,1,180.92,23.9,19.63,19.63,0,0,1,200.56,4.27" transform="translate(-2 -1.58)"/><path class="cls-2" d="M211.26,20.73a4.88,4.88,0,0,1-1.07-5.42l.12-.28.14-.25.12-.21.3-.42h0a31,31,0,0,0-12.8-1.7,33.56,33.56,0,0,0-8.07,1.8c2.79.28,5.54,1.4,5.61,3.14.09,2.08-3.51,4-5.23,5.31a33.37,33.37,0,0,1,4-.92c3-.42,4.94.23,7.55.92A13.91,13.91,0,0,0,212,21.36C211.94,21.29,211.33,20.81,211.26,20.73Z" transform="translate(-2 -1.58)"/><path class="cls-3" d="M212.36,15.08c-.12.12-.25.28-.35.39a2.06,2.06,0,0,1-.17.23c-.07.11-.22.37-.25.44a3.86,3.86,0,0,0-.37,1.16,4,4,0,0,0,.08,1.6,4.14,4.14,0,0,0,.9,1.7c.06.07.41.39.42.4a15.07,15.07,0,0,0,3.92-3.63s-2.19-1.45-3.58-2.3l-.36-.21A2.61,2.61,0,0,0,212.36,15.08Z" transform="translate(-2 -1.58)"/><path class="cls-2" d="M190,27.07A5.1,5.1,0,0,1,191.21,29a5,5,0,0,1,.23,2,4.57,4.57,0,0,1-.37,1.5l-.13.28c0,.09-.09.17-.13.25s-.13.21-.13.21l-.29.42h0v0a31.18,31.18,0,0,0,12.8,1.69,33.68,33.68,0,0,0,8.07-1.8c-2.8-.27-5.54-1.4-5.61-3.13-.09-2.09,3.51-4,5.23-5.31a31,31,0,0,1-4,.91c-3,.43-4.94-.23-7.55-.91a13.87,13.87,0,0,0-10.09,1.31C189.31,26.51,189.92,27,190,27.07Z" transform="translate(-2 -1.58)"/><path class="cls-3" d="M188.9,32.72c.12-.12.25-.28.34-.39a2.76,2.76,0,0,0,.17-.23c.07-.1.22-.37.26-.44A3.87,3.87,0,0,0,190,30.5a4,4,0,0,0-.07-1.6,4.17,4.17,0,0,0-.91-1.7c-.05-.06-.4-.39-.41-.4a14.94,14.94,0,0,0-3.92,3.64s2.19,1.44,3.57,2.29a3.17,3.17,0,0,0,.36.21Z" transform="translate(-2 -1.58)"/><path class="cls-2" d="M200.56,4.27A19.63,19.63,0,1,1,180.92,23.9,19.63,19.63,0,0,1,200.56,4.27m0-2.69A22.32,22.32,0,1,0,222.88,23.9,22.35,22.35,0,0,0,200.56,1.58Z" transform="translate(-2 -1.58)"/><path class="cls-2" d="M11.09,25.38c-3.11,0-5.51-.61-7.15-1.81A4.28,4.28,0,0,1,2.16,18.8l3-12.14H9L6.1,18.33A2.19,2.19,0,0,0,7,20.92a8.73,8.73,0,0,0,4.74,1,11.62,11.62,0,0,0,5.28-1,4.16,4.16,0,0,0,2.3-2.78L22.1,6.66h3.82L22.91,19A7.25,7.25,0,0,1,19,23.61,16.36,16.36,0,0,1,11.09,25.38Z" transform="translate(-2 -1.58)"/><polygon class="cls-2" points="22.47 23.28 26.42 7.1 30.41 7.1 27.33 19.7 39.49 19.7 38.62 23.28 22.47 23.28"/><polygon class="cls-2" points="41.15 23.28 44.23 10.68 36.7 10.68 37.58 7.1 56.61 7.1 55.74 10.68 48.22 10.68 45.14 23.28 41.15 23.28"/><path class="cls-2" d="M72.09,24.86l-2.75-5.61H62.15l-1.37,5.61h-4l4-16.18H73.81a5.12,5.12,0,0,1,4,1.47,4.17,4.17,0,0,1,.72,3.93,6.31,6.31,0,0,1-4.84,4.85l2.9,5.93Zm-.45-9.19c1.65,0,2.58-.57,2.87-1.75a1.31,1.31,0,0,0-.11-1.12,2.44,2.44,0,0,0-1.88-.54H63.86L63,15.67Z" transform="translate(-2 -1.58)"/><path class="cls-2" d="M95.31,24.86l-1-3.28h-10l-2.62,3.28H77.13l13-16.18h4.36l5.12,16.18ZM93.14,18l-1.66-5.38L87.17,18Z" transform="translate(-2 -1.58)"/><polygon class="cls-2" points="117.58 23.28 120.35 11.68 110.57 21.42 105.48 11.33 102.56 23.28 98.57 23.28 102.52 7.1 107.76 7.1 111.91 15.44 120.15 7.1 125.53 7.1 121.57 23.28 117.58 23.28"/><path class="cls-2" d="M142.8,24.86l-1-3.28h-10l-2.61,3.28h-4.53l13-16.18H142l5.12,16.18ZM140.63,18,139,12.62,134.66,18Z" transform="translate(-2 -1.58)"/><path class="cls-2" d="M163.36,24.86l-2.75-5.61h-7.19l-1.37,5.61h-4L152,8.68h13.07a5.12,5.12,0,0,1,4,1.47,4.17,4.17,0,0,1,.72,3.93A6.31,6.31,0,0,1,165,18.93l2.9,5.93Zm-1-9.19c1.64,0,2.58-.57,2.87-1.75a1.31,1.31,0,0,0-.11-1.12,2.46,2.46,0,0,0-1.89-.54h-8.65l-.84,3.41Z" transform="translate(-2 -1.58)"/><rect class="cls-2" x="0.16" y="26.88" width="168" height="0.99"/><path class="cls-2" d="M4.44,33h6L10,34.57H5.77l-.44,1.64H9l-.42,1.54H4.91l-.46,1.69h4.3L8.33,41h-6Z" transform="translate(-2 -1.58)"/><path class="cls-2" d="M13.77,36.86,12.05,33h2l1,2.57L17.27,33h2.25l-3.76,4,1.77,4h-2l-1.07-2.68L12.16,41H9.91Z" transform="translate(-2 -1.58)"/><path class="cls-2" d="M21.34,33h2.54a3.32,3.32,0,0,1,2.51.81A2.2,2.2,0,0,1,27,35.46c0,2-1.7,3.12-3.88,3.12H21.6L21,41H19.2Zm1.87,4c1.17,0,2-.53,2-1.43A.92.92,0,0,0,24.9,35a1.43,1.43,0,0,0-1.09-.35H22.67L22,37Z" transform="translate(-2 -1.58)"/><path class="cls-2" d="M29.52,33h6l-.43,1.56H30.84l-.43,1.64h3.71l-.43,1.54H30l-.45,1.69h4.29L33.4,41h-6Z" transform="translate(-2 -1.58)"/><path class="cls-2" d="M37.86,33h2.91a3.41,3.41,0,0,1,2.54.8,2.26,2.26,0,0,1,.61,1.61,2.59,2.59,0,0,1-.73,1.89,3.67,3.67,0,0,1-1.85,1L42.7,41h-2l-1.23-2.56H38.16L37.47,41H35.71Zm2.28,3.88a2.27,2.27,0,0,0,1.61-.51,1.11,1.11,0,0,0,.33-.81.83.83,0,0,0-.25-.64,1.59,1.59,0,0,0-1.16-.33H39.2l-.62,2.29Z" transform="translate(-2 -1.58)"/><path class="cls-2" d="M46.88,33h1.76l-2.15,8H44.74Z" transform="translate(-2 -1.58)"/><path class="cls-2" d="M51.28,33h6l-.42,1.56H52.6l-.43,1.64h3.71l-.42,1.54H51.75l-.46,1.69h4.29L55.16,41h-6Z" transform="translate(-2 -1.58)"/><path class="cls-2" d="M59.62,33h1.62l2.33,5.08L64.94,33h1.74l-2.15,8H63l-2.42-5.24L59.21,41H57.48Z" transform="translate(-2 -1.58)"/><path class="cls-2" d="M67.36,37.66a4.89,4.89,0,0,1,4.87-4.79,3.48,3.48,0,0,1,3.19,1.7l-1.45,1a2.2,2.2,0,0,0-2-1.1,3,3,0,0,0-2.82,3.1,1.85,1.85,0,0,0,2,1.93A2.76,2.76,0,0,0,73,38.73l1.14,1.19a4.23,4.23,0,0,1-3,1.22A3.45,3.45,0,0,1,67.36,37.66Z" transform="translate(-2 -1.58)"/><path class="cls-2" d="M77.91,33h6l-.42,1.56H79.23l-.43,1.64h3.71l-.42,1.54H78.38l-.46,1.69h4.29L81.79,41h-6Z" transform="translate(-2 -1.58)"/><path class="cls-2" d="M91.85,33h1.76l-2.15,8H89.7Z" transform="translate(-2 -1.58)"/><path class="cls-2" d="M96.25,33h1.62l2.33,5.08L101.57,33h1.73l-2.15,8H99.66l-2.42-5.24L95.83,41H94.1Z" transform="translate(-2 -1.58)"/><path class="cls-2" d="M105.92,33h1.62l2.33,5.08L111.24,33H113l-2.15,8h-1.49l-2.42-5.24L105.51,41h-1.73Z" transform="translate(-2 -1.58)"/><path class="cls-2" d="M113.71,37.6a4.77,4.77,0,0,1,4.8-4.73,3.46,3.46,0,0,1,3.66,3.54,4.77,4.77,0,0,1-4.81,4.73A3.45,3.45,0,0,1,113.71,37.6Zm6.63-1.07a1.89,1.89,0,0,0-2-2,3,3,0,0,0-2.78,3,1.89,1.89,0,0,0,2,2A3,3,0,0,0,120.34,36.53Z" transform="translate(-2 -1.58)"/><path class="cls-2" d="M123.56,33h1.88l.55,5.57L129.53,33h2l-5.35,8.05H124.6Z" transform="translate(-2 -1.58)"/><path class="cls-2" d="M135.18,33h1.69l1.27,8h-1.81l-.25-1.79H132.7L131.49,41H129.6Zm.69,4.71L135.51,35l-1.76,2.64Z" transform="translate(-2 -1.58)"/><path class="cls-2" d="M142.25,34.63h-2.43l.44-1.62h6.62l-.44,1.62H144L142.3,41h-1.76Z" transform="translate(-2 -1.58)"/><path class="cls-2" d="M148.67,33h1.75l-2.14,8h-1.76Z" transform="translate(-2 -1.58)"/><path class="cls-2" d="M151.46,37.6a4.77,4.77,0,0,1,4.81-4.73,3.45,3.45,0,0,1,3.65,3.54,4.77,4.77,0,0,1-4.81,4.73A3.45,3.45,0,0,1,151.46,37.6Zm6.63-1.07a1.89,1.89,0,0,0-2-2,3,3,0,0,0-2.77,3,1.89,1.89,0,0,0,2,2A3,3,0,0,0,158.09,36.53Z" transform="translate(-2 -1.58)"/><path class="cls-2" d="M163.09,33h1.62L167,38.09,168.41,33h1.73L168,41h-1.5l-2.42-5.24L162.68,41h-1.74Z" transform="translate(-2 -1.58)"/><path class="cls-2" d="M171.17,23.78a1.46,1.46,0,1,1-1.45-1.42A1.43,1.43,0,0,1,171.17,23.78Zm-2.55,0a1.1,1.1,0,0,0,1.1,1.13,1.08,1.08,0,0,0,1.08-1.12,1.09,1.09,0,1,0-2.18,0Zm.87.73h-.33V23.1a3.34,3.34,0,0,1,.55-.05.81.81,0,0,1,.48.11.37.37,0,0,1,.15.31.36.36,0,0,1-.3.33v0c.14,0,.21.16.25.35a1.26,1.26,0,0,0,.11.34h-.35a1.09,1.09,0,0,1-.11-.34c0-.15-.11-.22-.29-.22h-.16Zm0-.79h.15c.19,0,.33-.06.33-.21s-.09-.22-.3-.22l-.18,0Z" transform="translate(-2 -1.58)"/></svg>